# xmcd
#
# Track frame offsets: 
#        150
#        16762
#        33056
#        50311
#        64019
#        80133
#        114393
#        122876
#        140091
#        156202
#        169326
#        182117
#        200710
#        215591
#        241578
#
# Disc length: 3494 seconds
#
# Revision: 0
# Processed by: cddbd v1.5.2PL0 Copyright (c) Steve Scherf et al.
# Submitted via: ExactAudioCopy v0.99pb3
#
DISCID=d00da40f
DTITLE=Blues Noir - Noir Album
DYEAR=2008
DGENRE=Blues
TTITLE0=What I Am
TTITLE1=Tap City
TTITLE2=People Like You
TTITLE3=Jelly Roll Off The Table
TTITLE4=Kessel Not Rubble Blues
TTITLE5=I.O.U. Blues
TTITLE6=Pachyderm And Penguin
TTITLE7=Night Train To Memphis
TTITLE8=Kessel Not Rubble Blues (Slight Return)
TTITLE9=Mistreat Me
TTITLE10=Song For Caitlin
TTITLE11=How Many Women
TTITLE12=Walkin' All Night
TTITLE13=Judgement Day
TTITLE14=Sweet Mamma Big Legs
EXTD=
EXTT0=
EXTT1=
EXTT2=
EXTT3=
EXTT4=
EXTT5=
EXTT6=
EXTT7=
EXTT8=
EXTT9=
EXTT10=
EXTT11=
EXTT12=
EXTT13=
EXTT14=
PLAYORDER=
